<svg xmlns="http://www.w3.org/2000/svg" version="1.1" xmlns:xlink="http://www.w3.org/1999/xlink" xmlns:svgjs="http://svgjs.dev/svgjs" width="1500" height="1500" viewBox="0 0 1500 1500"><rect width="1500" height="1500" fill="#444444"></rect><g transform="matrix(0.6666666666666666,0,0,0.6666666666666666,249.39393939393938,438.5856950067477)"><svg viewBox="0 0 396 247" data-background-color="#444444" preserveAspectRatio="xMidYMid meet" height="935" width="1500" xmlns="http://www.w3.org/2000/svg" xmlns:xlink="http://www.w3.org/1999/xlink"><g id="tight-bounds" transform="matrix(1,0,0,1,0.2400000000000091,-0.09999999999999432)"><svg viewBox="0 0 395.52 247.2" height="247.2" width="395.52"><g><svg></svg></g><g><svg viewBox="0 0 395.52 247.2" height="247.2" width="395.52"><mask id="aafea0d3-2bfe-4808-85e3-8fe54800c0f3"><rect width="395.52" height="247.2" fill="white"></rect><g transform="matrix(1,0,0,1,0,83.17528726061616)" id="clone"><svg viewBox="0 0 395.52 80.84942547876767" height="80.84942547876767" width="395.52"><g><svg viewBox="0 0 395.52 80.84942547876767" height="80.84942547876767" width="395.52"><g><svg viewBox="0 0 395.52 80.84942547876767" height="80.84942547876767" width="395.52"><g><svg viewBox="0 0 395.52 80.84942547876767" height="80.84942547876767" width="395.52"><g id="SvgjsG1039"><svg viewBox="0 0 395.52 80.84942547876767" height="80.84942547876767" width="395.52" id="SvgjsSvg1038"><g><svg viewBox="0 0 395.52 80.84942547876767" height="80.84942547876767" width="395.52"><g transform="matrix(1,0,0,1,0,0)"><svg width="395.52" viewBox="-1.9 -37.1 241.18 50.1" height="80.84942547876767" data-palette-color="#ffffff"><path d="M30.55-5.15L37.9-34.1 41.45-34.1 32.35 0 28.45 0 21.35-27.4 14.05 0 10.2 0 1.1-34.1 4.95-34.1 12.25-5.4 19.85-34.1 22.9-34.1 30.55-5.15ZM50.95 0L47.55 0 47.55-23.4 50.95-23.4 50.95 0ZM49.25-27.95Q48.1-27.95 47.32-28.75 46.55-29.55 46.55-30.7L46.55-30.7Q46.55-31.8 47.32-32.58 48.1-33.35 49.25-33.35L49.25-33.35Q50.35-33.35 51.15-32.58 51.95-31.8 51.95-30.65L51.95-30.65Q51.95-29.55 51.15-28.75 50.35-27.95 49.25-27.95L49.25-27.95ZM70.25-24.2Q72.7-24.2 74.77-23.2 76.85-22.2 78.07-20.25 79.3-18.3 79.3-15.65L79.3-15.65 79.3 0 75.9 0 75.9-14.15Q75.9-21.1 69.7-21.1L69.7-21.1Q66.1-21.1 64.3-18.55 62.5-16 62.5-11.7L62.5-11.7 62.5 0 59.1 0 59.1-23.4 62.5-23.4 62.5-19.5Q63.7-21.75 65.67-22.98 67.65-24.2 70.25-24.2L70.25-24.2ZM97.09-24.2Q99.54-24.2 101.62-23.2 103.69-22.2 104.92-20.25 106.14-18.3 106.14-15.65L106.14-15.65 106.14 0 102.74 0 102.74-14.15Q102.74-21.1 96.54-21.1L96.54-21.1Q92.94-21.1 91.14-18.55 89.34-16 89.34-11.7L89.34-11.7 89.34 0 85.94 0 85.94-23.4 89.34-23.4 89.34-19.5Q90.54-21.75 92.52-22.98 94.49-24.2 97.09-24.2L97.09-24.2ZM122.99 0.8Q119.64 0.8 116.99-0.8 114.34-2.4 112.84-5.28 111.34-8.15 111.34-11.75L111.34-11.75Q111.34-15.35 112.82-18.18 114.29-21 116.92-22.6 119.54-24.2 122.89-24.2L122.89-24.2Q126.24-24.2 128.89-22.6 131.54-21 133.04-18.15 134.54-15.3 134.54-11.7L134.54-11.7Q134.54-8.1 133.07-5.25 131.59-2.4 128.97-0.8 126.34 0.8 122.99 0.8L122.99 0.8ZM122.89-2.3Q125.29-2.3 127.17-3.5 129.04-4.7 130.09-6.85 131.14-9 131.14-11.7L131.14-11.7Q131.14-14.4 130.09-16.55 129.04-18.7 127.17-19.9 125.29-21.1 122.89-21.1L122.89-21.1Q120.54-21.1 118.69-19.9 116.84-18.7 115.79-16.57 114.74-14.45 114.74-11.75L114.74-11.75Q114.74-9 115.79-6.85 116.84-4.7 118.69-3.5 120.54-2.3 122.89-2.3L122.89-2.3ZM160.89-4.9L166.84-23.4 170.09-23.4 162.49 0 158.94 0 153.24-17.95 147.09 0 143.69 0 135.99-23.4 139.59-23.4 145.59-4.8 151.69-23.4 154.99-23.4 160.89-4.9ZM179.54 0L176.14 0 176.14-23.4 179.54-23.4 179.54 0ZM177.84-27.95Q176.69-27.95 175.91-28.75 175.14-29.55 175.14-30.7L175.14-30.7Q175.14-31.8 175.91-32.58 176.69-33.35 177.84-33.35L177.84-33.35Q178.94-33.35 179.74-32.58 180.54-31.8 180.54-30.65L180.54-30.65Q180.54-29.55 179.74-28.75 178.94-27.95 177.84-27.95L177.84-27.95ZM198.83-24.2Q201.28-24.2 203.36-23.2 205.43-22.2 206.66-20.25 207.88-18.3 207.88-15.65L207.88-15.65 207.88 0 204.48 0 204.48-14.15Q204.48-21.1 198.28-21.1L198.28-21.1Q194.68-21.1 192.88-18.55 191.08-16 191.08-11.7L191.08-11.7 191.08 0 187.68 0 187.68-23.4 191.08-23.4 191.08-19.5Q192.28-21.75 194.26-22.98 196.23-24.2 198.83-24.2L198.83-24.2ZM232.88-23.4L236.28-23.4 236.28-0.9Q236.28 2.25 234.98 4.73 233.68 7.2 231.33 8.6 228.98 10 225.98 10L225.98 10 216.28 10 216.28 6.9 225.98 6.9Q229.03 6.9 230.96 4.7 232.88 2.5 232.88-0.9L232.88-0.9 232.88-3.45Q231.43-1.45 229.33-0.33 227.23 0.8 224.73 0.8L224.73 0.8Q221.38 0.8 218.73-0.8 216.08-2.4 214.58-5.25 213.08-8.1 213.08-11.75L213.08-11.75Q213.08-15.35 214.56-18.18 216.03-21 218.66-22.6 221.28-24.2 224.63-24.2L224.63-24.2Q227.18-24.2 229.31-23.08 231.43-21.95 232.88-19.9L232.88-19.9 232.88-23.4ZM224.63-2.3Q227.03-2.3 228.91-3.5 230.78-4.7 231.83-6.85 232.88-9 232.88-11.7L232.88-11.7Q232.88-14.4 231.83-16.55 230.78-18.7 228.91-19.9 227.03-21.1 224.63-21.1L224.63-21.1Q222.28-21.1 220.43-19.9 218.58-18.7 217.53-16.57 216.48-14.45 216.48-11.75L216.48-11.75Q216.48-9 217.53-6.85 218.58-4.7 220.43-3.5 222.28-2.3 224.63-2.3L224.63-2.3Z" opacity="1" transform="matrix(1,0,0,1,0,0)" fill="black" class="wordmark-text-0" id="SvgjsPath1037" stroke-width="5" stroke="black" stroke-linejoin="round"></path></svg></g></svg></g></svg></g></svg></g></svg></g></svg></g></svg></g></mask><g mask="url(#aafea0d3-2bfe-4808-85e3-8fe54800c0f3)"><g><path d="M264.997 209.866l53.282-209.866h25.735l-65.968 247.2h-28.273l-51.469-198.63-52.92 198.63h-27.91l-65.968-247.2h27.91l52.919 208.054 55.095-208.054h22.11z" fill="#ffffff" fill-rule="nonzero" stroke="none" stroke-width="1" stroke-linecap="butt" stroke-linejoin="miter" stroke-miterlimit="10" stroke-dasharray="" stroke-dashoffset="0" font-family="none" font-weight="none" font-size="none" text-anchor="none" style="mix-blend-mode: normal" data-fill-palette-color="tertiary"></path></g></g><g transform="matrix(1,0,0,1,0,83.17528726061616)"><svg viewBox="0 0 395.52 80.84942547876767" height="80.84942547876767" width="395.52"><g><svg viewBox="0 0 395.52 80.84942547876767" height="80.84942547876767" width="395.52"><g><svg viewBox="0 0 395.52 80.84942547876767" height="80.84942547876767" width="395.52"><g><svg viewBox="0 0 395.52 80.84942547876767" height="80.84942547876767" width="395.52"><g id="textblocktransform"><svg viewBox="0 0 395.52 80.84942547876767" height="80.84942547876767" width="395.52" id="textblock"><g><svg viewBox="0 0 395.52 80.84942547876767" height="80.84942547876767" width="395.52"><g transform="matrix(1,0,0,1,0,0)"><svg width="395.52" viewBox="-1.9 -37.1 241.18 50.1" height="80.84942547876767" data-palette-color="#ffffff"><path d="M30.55-5.15L37.9-34.1 41.45-34.1 32.35 0 28.45 0 21.35-27.4 14.05 0 10.2 0 1.1-34.1 4.95-34.1 12.25-5.4 19.85-34.1 22.9-34.1 30.55-5.15ZM50.95 0L47.55 0 47.55-23.4 50.95-23.4 50.95 0ZM49.25-27.95Q48.1-27.95 47.32-28.75 46.55-29.55 46.55-30.7L46.55-30.7Q46.55-31.8 47.32-32.58 48.1-33.35 49.25-33.35L49.25-33.35Q50.35-33.35 51.15-32.58 51.95-31.8 51.95-30.65L51.95-30.65Q51.95-29.55 51.15-28.75 50.35-27.95 49.25-27.95L49.25-27.95ZM70.25-24.2Q72.7-24.2 74.77-23.2 76.85-22.2 78.07-20.25 79.3-18.3 79.3-15.65L79.3-15.65 79.3 0 75.9 0 75.9-14.15Q75.9-21.1 69.7-21.1L69.7-21.1Q66.1-21.1 64.3-18.55 62.5-16 62.5-11.7L62.5-11.7 62.5 0 59.1 0 59.1-23.4 62.5-23.4 62.5-19.5Q63.7-21.75 65.67-22.98 67.65-24.2 70.25-24.2L70.25-24.2ZM97.09-24.2Q99.54-24.2 101.62-23.2 103.69-22.2 104.92-20.25 106.14-18.3 106.14-15.65L106.14-15.65 106.14 0 102.74 0 102.74-14.15Q102.74-21.1 96.54-21.1L96.54-21.1Q92.94-21.1 91.14-18.55 89.34-16 89.34-11.7L89.34-11.7 89.34 0 85.94 0 85.94-23.4 89.34-23.4 89.34-19.5Q90.54-21.75 92.52-22.98 94.49-24.2 97.09-24.2L97.09-24.2ZM122.99 0.8Q119.64 0.8 116.99-0.8 114.34-2.4 112.84-5.28 111.34-8.15 111.34-11.75L111.34-11.75Q111.34-15.35 112.82-18.18 114.29-21 116.92-22.6 119.54-24.2 122.89-24.2L122.89-24.2Q126.24-24.2 128.89-22.6 131.54-21 133.04-18.15 134.54-15.3 134.54-11.7L134.54-11.7Q134.54-8.1 133.07-5.25 131.59-2.4 128.97-0.8 126.34 0.8 122.99 0.8L122.99 0.8ZM122.89-2.3Q125.29-2.3 127.17-3.5 129.04-4.7 130.09-6.85 131.14-9 131.14-11.7L131.14-11.7Q131.14-14.4 130.09-16.55 129.04-18.7 127.17-19.9 125.29-21.1 122.89-21.1L122.89-21.1Q120.54-21.1 118.69-19.9 116.84-18.7 115.79-16.57 114.74-14.45 114.74-11.75L114.74-11.75Q114.74-9 115.79-6.85 116.84-4.7 118.69-3.5 120.54-2.3 122.89-2.3L122.89-2.3ZM160.89-4.9L166.84-23.4 170.09-23.4 162.49 0 158.94 0 153.24-17.95 147.09 0 143.69 0 135.99-23.4 139.59-23.4 145.59-4.8 151.69-23.4 154.99-23.4 160.89-4.9ZM179.54 0L176.14 0 176.14-23.4 179.54-23.4 179.54 0ZM177.84-27.95Q176.69-27.95 175.91-28.75 175.14-29.55 175.14-30.7L175.14-30.7Q175.14-31.8 175.91-32.58 176.69-33.35 177.84-33.35L177.84-33.35Q178.94-33.35 179.74-32.58 180.54-31.8 180.54-30.65L180.54-30.65Q180.54-29.55 179.74-28.75 178.94-27.95 177.84-27.95L177.84-27.95ZM198.83-24.2Q201.28-24.2 203.36-23.2 205.43-22.2 206.66-20.25 207.88-18.3 207.88-15.65L207.88-15.65 207.88 0 204.48 0 204.48-14.15Q204.48-21.1 198.28-21.1L198.28-21.1Q194.68-21.1 192.88-18.55 191.08-16 191.08-11.7L191.08-11.7 191.08 0 187.68 0 187.68-23.4 191.08-23.4 191.08-19.5Q192.28-21.75 194.26-22.98 196.23-24.2 198.83-24.2L198.83-24.2ZM232.88-23.4L236.28-23.4 236.28-0.9Q236.28 2.25 234.98 4.73 233.68 7.2 231.33 8.6 228.98 10 225.98 10L225.98 10 216.28 10 216.28 6.9 225.98 6.9Q229.03 6.9 230.96 4.7 232.88 2.5 232.88-0.9L232.88-0.9 232.88-3.45Q231.43-1.45 229.33-0.33 227.23 0.8 224.73 0.8L224.73 0.8Q221.38 0.8 218.73-0.8 216.08-2.4 214.58-5.25 213.08-8.1 213.08-11.75L213.08-11.75Q213.08-15.35 214.56-18.18 216.03-21 218.66-22.6 221.28-24.2 224.63-24.2L224.63-24.2Q227.18-24.2 229.31-23.08 231.43-21.95 232.88-19.9L232.88-19.9 232.88-23.4ZM224.63-2.3Q227.03-2.3 228.91-3.5 230.78-4.7 231.83-6.85 232.88-9 232.88-11.7L232.88-11.7Q232.88-14.4 231.83-16.55 230.78-18.7 228.91-19.9 227.03-21.1 224.63-21.1L224.63-21.1Q222.28-21.1 220.43-19.9 218.58-18.7 217.53-16.57 216.48-14.45 216.48-11.75L216.48-11.75Q216.48-9 217.53-6.85 218.58-4.7 220.43-3.5 222.28-2.3 224.63-2.3L224.63-2.3Z" opacity="1" transform="matrix(1,0,0,1,0,0)" fill="#ffffff" class="wordmark-text-0" data-fill-palette-color="primary" id="text-0"></path></svg></g></svg></g></svg></g></svg></g></svg></g></svg></g></svg></g></svg></g><defs></defs></svg><rect width="395.52" height="247.2" fill="none" stroke="none" visibility="hidden"></rect></g></svg></g></svg>